<?xml version="1.0" encoding="UTF-8" standalone="no"?>
<!DOCTYPE svg PUBLIC "-//W3C//DTD SVG 1.1//EN" "http://www.w3.org/Graphics/SVG/1.1/DTD/svg11.dtd">
<svg version="1.1" xmlns="http://www.w3.org/2000/svg" xmlns:xlink="http://www.w3.org/1999/xlink" preserveAspectRatio="xMidYMid meet" viewBox="0 0 640 640" width="640" height="640"><defs><path d="M640 320C640 496.61 496.61 640 320 640C143.39 640 0 496.61 0 320C0 143.39 143.39 0 320 0C496.61 0 640 143.39 640 320Z" id="amrU4plBz"></path><path d="M391.2 140.06C381.39 145.88 337.94 171.7 294.65 197.36C118.74 301.74 125.41 297.75 125.41 298.64C125.41 299.43 127.09 302.26 137.58 319.16C155 347.29 274.44 537.3 277.8 542.29C282.73 549.69 291.97 558.92 297.95 562.44C307.34 568 316.53 570.41 326.66 569.94C333.64 569.63 336.84 568.74 342.61 565.59C349.48 561.81 357.72 554.15 360.61 548.79C362.65 545.02 374.36 515.26 398.81 451.77C418.23 401.39 424.52 384.81 424.52 384.02C424.52 383.55 420.27 385.96 398.81 398.76C378.97 410.62 320.15 445.52 311.54 450.61C308.6 452.34 307.87 452.61 307.45 451.98C305.4 448.77 305.14 440.27 306.87 434.03C309.39 425.21 314.22 417.97 323.82 408.73C331.85 401.02 334.58 399.08 365.49 379.09C410.88 349.75 419.49 343.61 430.4 332.75C447.77 315.38 457.06 298.01 461.31 274.92C463.25 264.27 463.15 245.69 461.05 236.72C460.1 232.62 459.74 232.36 457.27 233.62C456.12 234.2 411.88 260.38 358.93 291.82C305.98 323.25 261.06 349.86 259.12 350.96C256.97 352.17 255.5 352.69 255.29 352.32C254.55 351.17 254.4 342.35 254.97 338.15C255.76 333.01 258.07 326.4 260.43 322.57C265.63 314.17 278.59 301.89 290.71 293.81C295.17 290.82 317.26 277.28 339.77 263.74C435.7 206.07 465.93 187.44 475.37 180.25C505.76 157.11 519.72 120.11 512.95 80.76C512 75.35 510.59 70 510.11 70C509.96 70 508.17 70.89 506.13 71.99C502.92 73.78 446.51 107.15 391.2 140.06Z" id="c28xyX7i2d"></path></defs><g><g><g><use xlink:href="#amrU4plBz" opacity="1" fill="#000000" fill-opacity="1"></use></g><g><use xlink:href="#c28xyX7i2d" opacity="1" fill="#ffffff" fill-opacity="1"></use><g><use xlink:href="#c28xyX7i2d" opacity="1" fill-opacity="0" stroke="#000000" stroke-width="1" stroke-opacity="0"></use></g></g></g></g></svg>