<svg xmlns="http://www.w3.org/2000/svg" xmlns:xlink="http://www.w3.org/1999/xlink" width="24" height="24" preserveAspectRatio="xMidYMid meet" viewBox="0 0 24 24" style="-ms-transform: rotate(360deg); -webkit-transform: rotate(360deg); transform: rotate(360deg);"><path d="M18 1h-8a3 3 0 0 0-3 3H6a3 3 0 0 0-3 3v3a3 3 0 0 0 3 3h6a1 1 0 0 1 1 1v1a2 2 0 0 0-2 2v4a2 2 0 0 0 2 2h2a2 2 0 0 0 2-2v-4a2 2 0 0 0-2-2v-1a3 3 0 0 0-3-3H6a1 1 0 0 1-1-1V7a1 1 0 0 1 1-1h1a3 3 0 0 0 3 3h8a3 3 0 0 0 3-3V4a3 3 0 0 0-3-3zm-3 16v4h-2v-4zm4-11a1 1 0 0 1-1 1h-8a1 1 0 0 1-1-1V4a1 1 0 0 1 1-1h8a1 1 0 0 1 1 1z" fill="#626262"/><rect x="0" y="0" width="24" height="24" fill="rgba(0, 0, 0, 0)" /></svg>