<?xml version="1.0" encoding="UTF-8" standalone="no"?>
<!-- Created with Inkscape (http://www.inkscape.org/) -->

<svg
   width="139.099mm"
   height="139.3553mm"
   viewBox="0 0 139.099 139.3553"
   version="1.1"
   id="svg5"
   inkscape:version="1.1.2 (b8e25be833, 2022-02-05)"
   sodipodi:docname="foxlogo-nobg.svg"
   xmlns:inkscape="http://www.inkscape.org/namespaces/inkscape"
   xmlns:sodipodi="http://sodipodi.sourceforge.net/DTD/sodipodi-0.dtd"
   xmlns="http://www.w3.org/2000/svg"
   xmlns:svg="http://www.w3.org/2000/svg">
  <sodipodi:namedview
     id="namedview7"
     pagecolor="#505050"
     bordercolor="#eeeeee"
     borderopacity="1"
     inkscape:pageshadow="0"
     inkscape:pageopacity="0"
     inkscape:pagecheckerboard="0"
     inkscape:document-units="mm"
     showgrid="false"
     inkscape:snap-object-midpoints="true"
     inkscape:snap-global="true"
     inkscape:snap-bbox="true"
     inkscape:snap-bbox-midpoints="true"
     inkscape:snap-bbox-edge-midpoints="true"
     inkscape:bbox-nodes="true"
     inkscape:bbox-paths="true"
     inkscape:zoom="0.72"
     inkscape:cx="320.13889"
     inkscape:cy="315.97222"
     inkscape:window-width="1920"
     inkscape:window-height="1001"
     inkscape:window-x="-9"
     inkscape:window-y="-9"
     inkscape:window-maximized="1"
     inkscape:current-layer="layer10">
    <inkscape:grid
       type="xygrid"
       id="grid45595"
       originx="-60.933745"
       originy="-58.915618" />
  </sodipodi:namedview>
  <defs
     id="defs2">
    <linearGradient
       id="linearGradient37033"
       inkscape:swatch="solid">
      <stop
         style="stop-color:#000000;stop-opacity:1;"
         offset="0"
         id="stop37031" />
    </linearGradient>
    <clipPath
       id="_clipPath_e6W358s6Jyi1jf27OSz28fLI23sgkXYE">
      <rect
         x="0"
         y="0.0070000002"
         width="593.89099"
         height="762.58197"
         id="rect54679" />
    </clipPath>
  </defs>
  <g
     inkscape:groupmode="layer"
     id="layer10"
     inkscape:label="Background"
     transform="translate(-30.466874,-29.45781)" />
  <g
     inkscape:groupmode="layer"
     id="layer8"
     inkscape:label="Main Fill"
     style="display:inline"
     transform="translate(-30.466874,-29.45781)">
    <path
       style="display:inline;fill:#f65d24;fill-opacity:1;stroke:#000000;stroke-width:0;stroke-linecap:butt;stroke-linejoin:miter;stroke-miterlimit:4;stroke-dasharray:none;stroke-opacity:1"
       d="m 98.265836,151.40006 h 3.501074 L 154.26706,98.343351 148.73139,76.650616 142.39069,70.711961 109.32436,67 H 89.296874 l -31.633729,3.711961 -6.340697,5.938655 -5.557284,21.692735 z"
       id="path49707"
       sodipodi:nodetypes="ccccccccccc" />
    <g
       style="isolation:isolate"
       id="g54700"
       transform="matrix(0.35724139,0,0,0.35724139,-106.3295,-104.8824)">
      <path
         d="m 439.84342,548.3068 c 0,0.25912 48.49507,77.53598 49.07805,78.48602 3.92969,6.24 7.53552,9.13331 13.10619,10.57995 1.96485,0.5182 5.31157,0.47502 7.0605,-0.0863 3.10921,-0.97163 6.56389,-3.71378 8.31282,-6.60707 0.45342,-0.75572 21.07355,-54.21688 21.00877,-54.26006 -0.0432,-0.0648 -38.30376,22.62814 -38.39013,22.62814 -0.2591,0 -0.79889,-2.11599 -0.79889,-3.06603 0,-2.31031 0.99322,-5.35475 2.39669,-7.298 2.43986,-3.4115 5.63544,-6.2832 10.40721,-9.34923 13.55963,-8.72307 21.87245,-14.20737 23.36228,-15.37333 7.98894,-6.24002 12.50161,-12.65276 14.57443,-20.72808 0.32387,-1.3171 0.73411,-3.41149 0.86367,-4.70699 0.5182,-4.33995 -0.17274,-12.24253 -1.03641,-11.91865 -0.17273,0.0648 -66.76169,39.53449 -66.89123,39.57768 -0.32388,0.0863 -0.47502,-1.29552 -0.41024,-3.62742 0.0648,-2.26713 0.84208,-4.707 2.11599,-6.67185 1.33868,-2.0728 5.72181,-6.39115 8.24804,-8.16168 1.18756,-0.82049 63.15586,-38.75719 65.83323,-41.43456 8.07532,-8.1185 11.14135,-19.6269 8.42079,-31.65351 -0.19433,-0.79894 -0.41025,-1.51147 -0.47501,-1.55465 -0.0863,-0.0432 -126.78675,75.13928 -126.78675,75.22564 z"
         fill="#000000"
         id="path54684"
         style="fill:#d05128;fill-opacity:1;stroke-width:0.215917" />
    </g>
    <g
       style="isolation:isolate"
       id="g56566"
       transform="matrix(0.35724139,0,0,0.35724139,-106.3295,-104.8824)">
      <path
         d="m 439.84342,548.3068 c 0,0.25912 48.49507,77.53598 49.07805,78.48602 3.92969,6.24 7.53552,9.13331 13.10619,10.57995 1.96485,0.5182 5.31157,0.47502 7.0605,-0.0863 3.10921,-0.97163 6.56389,-3.71378 8.31282,-6.60707 0.45342,-0.75572 21.07355,-54.21688 21.00877,-54.26006 -0.0432,-0.0648 -38.30376,22.62814 -38.39013,22.62814 -0.2591,0 -0.79889,-2.11599 -0.79889,-3.06603 0,-2.31031 0.99322,-5.35475 2.39669,-7.298 2.43986,-3.4115 5.63544,-6.2832 10.40721,-9.34923 13.55963,-8.72307 21.87245,-14.20737 23.36228,-15.37333 7.98894,-6.24002 12.50161,-12.65276 14.57443,-20.72808 0.32387,-1.3171 0.73411,-3.41149 0.86367,-4.70699 0.5182,-4.33995 -0.17274,-12.24253 -1.03641,-11.91865 -0.17273,0.0648 -66.76169,39.53449 -66.89123,39.57768 -0.32388,0.0863 -0.47502,-1.29552 -0.41024,-3.62742 0.0648,-2.26713 0.84208,-4.707 2.11599,-6.67185 1.33868,-2.0728 5.72181,-6.39115 8.24804,-8.16168 1.18756,-0.82049 63.15586,-38.75719 65.83323,-41.43456 8.07532,-8.1185 11.14135,-19.6269 8.42079,-31.65351 -0.19433,-0.79894 -0.41025,-1.51147 -0.47501,-1.55465 -0.0863,-0.0432 -126.78675,75.13928 -126.78675,75.22564 z"
         fill="#000000"
         id="path56564"
         style="fill:#d05128;fill-opacity:1;stroke-width:0.215917" />
    </g>
  </g>
  <g
     inkscape:groupmode="layer"
     id="layer9"
     inkscape:label="Fill Detail"
     transform="translate(-30.466874,-29.45781)">
    <path
       style="fill:#d05128;fill-opacity:1;stroke:#000000;stroke-width:0;stroke-linecap:butt;stroke-linejoin:miter;stroke-miterlimit:4;stroke-dasharray:none;stroke-opacity:1"
       d="m 85.691008,70.188078 c -10.61855,6.032745 -13.979433,11.97362 -18.213073,20.440899 l -21.712771,7.714374 7.436688,-18.874877 17.199017,-9.053688 9.701734,-0.233542 z"
       id="path52218"
       sodipodi:nodetypes="ccccccc" />
  </g>
  <g
     inkscape:groupmode="layer"
     id="layer7"
     inkscape:label="Cheeks"
     transform="translate(-30.466874,-29.45781)">
    <path
       style="display:inline;fill:#ffffff;fill-opacity:1;stroke:#000000;stroke-width:0;stroke-linecap:butt;stroke-linejoin:miter;stroke-miterlimit:4;stroke-dasharray:none;stroke-opacity:1"
       d="m 37.734647,123.68547 c 1.332822,-6.69201 2.275876,-11.04541 4.778002,-17.73742 2.126527,-2.30731 11.853532,-12.020223 23.334493,-11.988929 17.567913,0.140328 28.834576,19.898979 29.122772,57.716889 l -1.8433,1.41283 C 80.054417,141.144 64.643611,128.9393 37.734647,123.68547 Z"
       id="path46839"
       sodipodi:nodetypes="cccccc" />
    <path
       style="display:inline;fill:#ffffff;fill-opacity:1;stroke:#000000;stroke-width:0;stroke-linecap:butt;stroke-linejoin:miter;stroke-miterlimit:4;stroke-dasharray:none;stroke-opacity:1"
       d="m 162.29791,123.68547 c -1.33282,-6.69201 -2.27588,-11.04541 -4.778,-17.73742 -2.12653,-2.30731 -11.85355,-12.020222 -23.33451,-11.988928 -17.56792,0.140328 -28.83459,19.898978 -29.12279,57.716888 l 1.8433,1.41283 c 13.07221,-11.94484 28.48302,-24.14954 55.392,-29.40337 z"
       id="path47707"
       sodipodi:nodetypes="cccccc" />
  </g>
  <g
     inkscape:groupmode="layer"
     id="layer3"
     inkscape:label="Logo Marks"
     style="display:inline"
     transform="translate(-30.466874,-29.45781)">
    <path
       id="path51877"
       style="display:inline;fill:#cccccc;fill-opacity:1;stroke:#000000;stroke-width:0;stroke-linecap:butt;stroke-linejoin:miter;stroke-miterlimit:4;stroke-dasharray:none;stroke-opacity:1"
       d="m 253.96094,355.32422 c -2.12522,3.48496 -3.77564,6.19746 -5.60742,9.20312 -9.56673,15.65229 -14.04822,22.99435 -14.69532,24.10157 -0.39095,0.64807 -2.28983,3.77252 -4.24609,6.95507 -3.32998,5.4686 -9.95776,16.30031 -16.50586,27.06055 -1.5976,2.63974 -3.64375,5.98734 -4.56055,7.47266 -2.62626,4.30189 -11.54395,18.90506 -15.47656,25.39843 -1.97779,3.25278 -4.38054,7.19999 -5.3418,8.76758 -0.93829,1.55554 -3.82302,6.25935 -6.37109,10.43164 -0.47347,0.7753 -0.60748,0.9974 -1.07227,1.75782 50.48289,14.54205 88.97635,36.07764 121.38868,59.95898 0.92335,-2.09168 1.5252,-4.35173 1.64062,-6.40625 0.056,-1.05819 -1.32028,-13.46305 -3.31836,-29.97656 -1.86911,-15.49459 -3.73091,-30.69865 -4.08398,-33.80274 -0.38814,-3.11482 -0.75257,-5.68394 -0.84571,-5.69336 -0.0824,-0.0453 -0.92254,1.19499 -1.83789,2.73829 -0.93835,1.55554 -4.33514,7.17662 -7.57617,12.48046 -3.22889,5.32679 -7.3305,12.05562 -9.10742,14.9668 -6.21242,10.22952 -9.41998,15.42792 -9.51172,15.47656 -0.27522,0.14627 -2.041,-1.79747 -2.57617,-2.80664 -1.30142,-2.4542 -1.96068,-6.24666 -1.56445,-9.10156 0.67006,-4.99839 2.44722,-9.84991 5.78906,-15.79492 9.49028,-16.90469 15.23039,-27.41244 16.15625,-29.49024 4.97139,-11.12897 6.15366,-20.48454 3.80664,-30.23046 -0.39789,-1.58159 -1.1422,-4.03715 -1.73438,-5.48633 -1.89428,-4.90216 -7.08147,-12.90673 -7.8164,-12.07617 -0.1471,0.16629 -1.99183,3.1138 -4.0586,6.53125 -5.52079,9.04002 -13.97966,22.9572 -18.95312,31.08984 -2.38094,3.87795 -5.59926,9.16914 -7.15234,11.72656 -1.55313,2.55734 -4.91678,8.0738 -7.46485,12.2461 -2.54807,4.17233 -6.04492,9.9348 -7.77734,12.76367 -1.73242,2.82878 -3.24215,5.2464 -3.35547,5.36523 -0.29533,0.27402 -1.23375,-1.10939 -2.47852,-3.62305 -1.20844,-2.44474 -1.75814,-5.4745 -1.51172,-8.27929 0.25437,-2.95605 2.47788,-10.01253 4.16407,-13.31641 0.79932,-1.54057 2.7047,-4.93086 4.25781,-7.48828 1.54094,-2.58032 7.41541,-12.33549 13.0332,-21.69141 5.61778,-9.35591 11.18055,-18.59563 12.31836,-20.55078 2.14357,-3.60517 2.73572,-4.59354 9.6543,-16.37304 4.73196,-8.03396 5.99413,-10.6438 7.33008,-14.9961 1.3771,-4.52952 1.89818,-9.15068 1.59765,-13.72265 -7.72605,-3.14974 -15.91945,-5.01017 -24.53515,-5.58594 z"
       transform="scale(0.26458333)" />
    <path
       id="path51879"
       style="display:inline;fill:#cccccc;fill-opacity:1;stroke:#000000;stroke-width:0;stroke-linecap:butt;stroke-linejoin:miter;stroke-miterlimit:4;stroke-dasharray:none;stroke-opacity:1"
       d="m 501.83203,355.33789 c -8.624,0.60036 -16.82056,2.49606 -24.55078,5.67969 -0.2854,4.53696 0.23914,9.12115 1.60547,13.61523 1.33595,4.3523 2.59811,6.96214 7.33008,14.9961 6.91857,11.7795 7.51073,12.76787 9.65429,16.37304 1.13783,1.95515 6.70059,11.19487 12.31836,20.55078 5.61778,9.35592 11.49226,19.11109 13.03321,21.69141 1.55312,2.55742 3.45851,5.94771 4.25781,7.48828 1.6862,3.30388 3.9097,10.36036 4.16406,13.31641 0.24643,2.80479 -0.30329,5.83455 -1.51172,8.27929 -1.24478,2.51366 -2.18333,3.89707 -2.47851,3.62305 -0.11331,-0.11883 -1.62305,-2.53645 -3.35547,-5.36523 -1.73242,-2.82887 -5.22926,-8.59134 -7.77735,-12.76367 -2.54804,-4.1723 -5.91168,-9.68876 -7.46484,-12.2461 -1.55308,-2.55742 -4.77139,-7.84861 -7.15234,-11.72656 -4.97348,-8.13264 -13.43233,-22.04982 -18.95313,-31.08984 -2.06676,-3.41745 -3.91352,-6.36496 -4.06055,-6.53125 -0.73492,-0.83056 -5.92019,7.17401 -7.81445,12.07617 -0.59217,1.44918 -1.33646,3.90474 -1.73437,5.48633 -2.34701,9.74592 -1.16476,19.10149 3.80664,30.23046 0.92583,2.0778 6.66597,12.58555 16.15625,29.49024 3.34186,5.94501 5.11899,10.79653 5.78906,15.79492 0.39625,2.8549 -0.26305,6.64736 -1.56445,9.10156 -0.53518,1.00917 -2.30103,2.95291 -2.57618,2.80664 -0.0917,-0.0486 -3.2993,-5.24704 -9.51171,-15.47656 -1.77695,-2.91118 -5.87854,-9.64001 -9.10743,-14.9668 -3.24102,-5.30384 -6.63779,-10.92492 -7.57617,-12.48046 -0.91532,-1.5433 -1.75549,-2.78364 -1.83789,-2.73829 -0.0931,0.009 -0.45754,2.57854 -0.8457,5.69336 -0.35305,3.10409 -2.21486,18.30815 -4.08399,33.80274 -1.99804,16.51351 -3.37625,28.91837 -3.32031,29.97656 0.11789,2.09834 0.74613,4.41027 1.70313,6.53906 32.40548,-23.90177 70.88876,-45.46278 121.36328,-60.03125 -0.47979,-0.78496 -0.61786,-1.01671 -1.10742,-1.81836 -2.54809,-4.17229 -5.43283,-8.8761 -6.3711,-10.43164 -0.96128,-1.56759 -3.36401,-5.5148 -5.34179,-8.76758 -3.9326,-6.49337 -12.85032,-21.09654 -15.47657,-25.39843 -0.9168,-1.48532 -2.96294,-4.83292 -4.56054,-7.47266 -6.54811,-10.76024 -13.17587,-21.59195 -16.50586,-27.06055 -1.95625,-3.18255 -3.85514,-6.307 -4.2461,-6.95507 -0.64713,-1.10722 -5.12857,-8.44928 -14.69531,-24.10157 -1.82911,-3.00127 -3.47747,-5.70954 -5.59961,-9.18945 z"
       transform="scale(0.26458333)" />
  </g>
  <g
     inkscape:groupmode="layer"
     id="layer6"
     inkscape:label="Eyes"
     transform="translate(-30.466874,-29.45781)">
    <circle
       style="display:inline;opacity:1;fill:#000000;fill-opacity:1;fill-rule:evenodd;stroke:#808080;stroke-width:0;stroke-linejoin:miter;stroke-miterlimit:4;stroke-dasharray:none;stroke-opacity:1"
       id="path46033"
       cx="74.949699"
       cy="121.8497"
       r="5.249702" />
    <circle
       style="display:inline;opacity:1;fill:#000000;fill-opacity:1;fill-rule:evenodd;stroke:#808080;stroke-width:0;stroke-linejoin:miter;stroke-miterlimit:4;stroke-dasharray:none;stroke-opacity:1"
       id="circle46325"
       cx="125.01842"
       cy="121.8497"
       r="5.249702" />
  </g>
  <g
     inkscape:groupmode="layer"
     id="layer4"
     inkscape:label="Outline"
     style="display:inline"
     transform="translate(-30.466874,-29.45781)">
    <path
       id="path37332"
       style="color:#000000;display:inline;fill:#000000;fill-opacity:1;fill-rule:evenodd;stroke-width:0;stroke-miterlimit:4;stroke-dasharray:none"
       d="m 274.12695,228.82812 -56.4707,25.16602 -23.57031,35.10938 -22.4043,31.30664 c -38.52065,64.0823 -51.71962,119.86188 -56.53125,158.11523 0,0 0.17426,5.51216 2.83399,8.49609 2.65973,2.9839 6.37304,3.65625 6.37304,3.65625 53.8166,7.21611 85.4104,23.02544 109.10547,34.40821 61.76106,29.87138 117.81087,86.02972 134.0332,107.41406 4.59769,6.0607 10.45508,5.52148 10.45508,5.52148 v -4.10937 l 0.125,4.10937 c 0,0 5.8574,0.53922 10.45508,-5.52148 16.22234,-21.38434 72.27209,-77.54268 134.0332,-107.41406 23.69507,-11.38277 55.29081,-27.1921 109.10743,-34.40821 0,0 3.71331,-0.67235 6.37304,-3.65625 2.65973,-2.98393 2.83399,-8.49609 2.83399,-8.49609 C 636.0673,440.27204 622.86638,384.49246 584.3457,320.41016 L 562.5,289.23633 538.36719,258.85352 477.95117,232.63867 442.92383,239.50781 H 413.21484 342.38281 312.79688 Z M 302.75,265.25195 h 151.76758 c 42.28501,0.13455 73.4954,19.17729 99.45312,55.15821 12.22145,17.56033 18.60059,29.55425 29.08594,51.28125 -20.67333,-16.52019 -49.27373,-29.74503 -76.60156,-29.24805 -44.49184,0.80912 -74.24352,30.03845 -92.875,68.23437 -21.97625,48.46587 -30.06324,99.56382 -28.94922,161.54297 h -6.67774 -1.87695 -4.67773 c 1.11403,-61.97915 -6.97493,-113.0771 -28.95117,-161.54297 -18.63148,-38.19592 -48.38125,-67.42525 -92.87305,-68.23437 -27.32783,-0.49698 -55.93019,12.72786 -76.60352,29.24805 10.48533,-21.727 16.8645,-33.72092 29.08594,-51.28125 34.4538,-48.44521 75.28252,-54.88566 100.69336,-55.15821 z m -53.87891,89.86914 c 33.12602,-0.75277 63.76203,22.60867 83.41993,63.71485 19.76609,41.33242 26.62148,105.38258 26.65039,154.42773 0,0 -1.99011,0.54079 -3.7793,1.99024 -1.78919,1.44941 -3.1875,3.34961 -3.1875,3.34961 -31.1063,-29.21005 -60.86357,-52.62241 -99.61328,-72.86914 -35.4036,-18.49837 -64.01304,-29.21134 -109.74219,-38.26172 6.71392,-34.75964 11.25788,-47.03637 18.05859,-67.03907 24.88429,-26.21531 55.06734,-44.55972 88.19336,-45.3125 z m 255.1875,0 c 1.03007,-0.0234 2.06247,-0.0235 3.09766,0 33.12601,0.75278 63.31102,19.09719 88.19531,45.3125 6.80073,20.0027 11.34468,32.27943 18.0586,67.03907 -45.72919,9.05038 -74.3386,19.76335 -109.74219,38.26172 -38.74972,20.24673 -68.50979,43.65909 -99.6161,72.86914 0,0 -1.39831,-1.9002 -3.1875,-3.34961 -1.78922,-1.44945 -3.77734,-1.99024 -3.77734,-1.99024 0.0289,-49.04515 6.88316,-113.09531 26.6493,-154.42773 19.04358,-39.8216 48.39019,-62.99005 80.32226,-63.71485 z"
       sodipodi:nodetypes="cccccsccscccsccsccccccccccccccsccccccscccsscscsccsscccscscss"
       transform="scale(0.26458333)" />
  </g>
  <g
     inkscape:groupmode="layer"
     id="layer2"
     inkscape:label="Ears"
     style="display:inline"
     transform="translate(-30.466874,-29.45781)">
    <g
       id="g25941">
      <path
         id="path18366"
         style="fill:#f65d24;fill-opacity:1;stroke:none;stroke-width:0.264583px;stroke-linecap:butt;stroke-linejoin:miter;stroke-opacity:1"
         d="m 57.284357,37.87159 c -2.278192,5.203473 -4.175379,12.155485 -5.180562,17.953942 -1.211755,6.990093 -1.393971,14.113028 -0.781347,20.825084 0,0 1.896139,-2.158 2.952922,-3.147776 1.056783,-0.989776 3.387776,-2.790879 3.387776,-2.790879 l 17.419608,-6.919473 c 0,0 1.506307,-0.248724 3.695617,-0.335024 2.189311,-0.0863 3.907021,-0.07061 3.907021,-0.07061 C 79.291774,57.926639 75.184645,52.812907 70.436527,48.246667 66.579635,44.537516 62.265869,40.870438 57.284357,37.87159 Z m 4.178557,13.158369 c 2.928101,1.404133 4.794491,2.982876 7.066753,5.094264 2.432818,2.260576 4.667375,4.7904 6.553087,7.668265 l -17.419609,6.919473 c -0.114106,-3.435228 0.03206,-6.927786 0.691431,-10.535274 0.612465,-3.350847 1.697005,-6.993795 3.108338,-9.146728 z"
         sodipodi:nodetypes="csczcczcsccsccsc" />
      <path
         id="path18485"
         style="fill:#020202;fill-opacity:1;stroke:none;stroke-width:0.264583px;stroke-linecap:butt;stroke-linejoin:miter;stroke-opacity:1"
         d="m 55.444159,29.459184 c -0.29093,-0.0084 -0.554661,0.02156 -0.788064,0.09405 -3.734456,1.159909 -8.342129,18.496081 -9.260932,24.756109 -1.373457,9.357691 -2.006026,16.70834 0.08061,30.554208 l 5.846673,-8.212937 c -0.612625,-6.712058 -0.430409,-13.834991 0.781346,-20.825084 1.005184,-5.798457 2.902371,-12.750469 5.180563,-17.953942 4.981511,2.998848 9.295278,6.665926 13.15217,10.375077 4.748117,4.56624 8.855247,9.679972 12.248864,15.140162 l 7.951451,0.07286 C 86.589184,55.762789 81.371976,49.430495 74.985086,43.098143 70.251256,38.380799 59.808152,29.584557 55.444159,29.459184 Z m 6.018755,21.570775 c -1.411332,2.152933 -2.495872,5.795881 -3.108338,9.146728 -0.659371,3.607488 -0.805537,7.100046 -0.69143,10.535274 l 17.419608,-6.919473 c -1.885712,-2.877865 -4.120269,-5.407689 -6.553086,-7.668265 -2.272263,-2.111388 -4.138652,-3.690131 -7.066754,-5.094264 z" />
    </g>
    <g
       id="g25947"
       transform="matrix(-1,0,0,1,200.05384,0)">
      <path
         id="path25943"
         style="fill:#f65d24;fill-opacity:1;stroke:none;stroke-width:0.264583px;stroke-linecap:butt;stroke-linejoin:miter;stroke-opacity:1"
         d="m 57.284357,37.87159 c -2.278192,5.203473 -4.175379,12.155485 -5.180562,17.953942 -1.211755,6.990093 -1.393971,14.113028 -0.781347,20.825084 0,0 1.896139,-2.158 2.952922,-3.147776 1.056783,-0.989776 3.387776,-2.790879 3.387776,-2.790879 l 17.419608,-6.919473 c 0,0 1.506307,-0.248724 3.695617,-0.335024 2.189311,-0.0863 3.907021,-0.07061 3.907021,-0.07061 C 79.291774,57.926639 75.184645,52.812907 70.436527,48.246667 66.579635,44.537516 62.265869,40.870438 57.284357,37.87159 Z m 4.178557,13.158369 c 2.928101,1.404133 4.794491,2.982876 7.066753,5.094264 2.432818,2.260576 4.667375,4.7904 6.553087,7.668265 l -17.419609,6.919473 c -0.114106,-3.435228 0.03206,-6.927786 0.691431,-10.535274 0.612465,-3.350847 1.697005,-6.993795 3.108338,-9.146728 z"
         sodipodi:nodetypes="csczcczcsccsccsc" />
      <path
         id="path25945"
         style="fill:#020202;fill-opacity:1;stroke:none;stroke-width:0.264583px;stroke-linecap:butt;stroke-linejoin:miter;stroke-opacity:1"
         d="m 55.444159,29.459184 c -0.29093,-0.0084 -0.554661,0.02156 -0.788064,0.09405 -3.734456,1.159909 -8.342129,18.496081 -9.260932,24.756109 -1.373457,9.357691 -2.006026,16.70834 0.08061,30.554208 l 5.846673,-8.212937 c -0.612625,-6.712058 -0.430409,-13.834991 0.781346,-20.825084 1.005184,-5.798457 2.902371,-12.750469 5.180563,-17.953942 4.981511,2.998848 9.295278,6.665926 13.15217,10.375077 4.748117,4.56624 8.855247,9.679972 12.248864,15.140162 l 7.951451,0.07286 C 86.589184,55.762789 81.371976,49.430495 74.985086,43.098143 70.251256,38.380799 59.808152,29.584557 55.444159,29.459184 Z m 6.018755,21.570775 c -1.411332,2.152933 -2.495872,5.795881 -3.108338,9.146728 -0.659371,3.607488 -0.805537,7.100046 -0.69143,10.535274 l 17.419608,-6.919473 c -1.885712,-2.877865 -4.120269,-5.407689 -6.553086,-7.668265 -2.272263,-2.111388 -4.138652,-3.690131 -7.066754,-5.094264 z" />
    </g>
  </g>
</svg>
