<?xml version="1.0" encoding="UTF-8" standalone="no"?>
<!DOCTYPE svg PUBLIC "-//W3C//DTD SVG 1.1//EN" "http://www.w3.org/Graphics/SVG/1.1/DTD/svg11.dtd">
<svg version="1.1" xmlns="http://www.w3.org/2000/svg" xmlns:xlink="http://www.w3.org/1999/xlink" preserveAspectRatio="xMidYMid meet" viewBox="0 0 640 640" width="640" height="640"><defs><path d="M640 320C640 496.61 496.61 640 320 640C143.39 640 0 496.61 0 320C0 143.39 143.39 0 320 0C496.61 0 640 143.39 640 320Z" id="a1ID3CoYGg"></path><path d="M206.6 96.49L475.67 96.49L475.67 212.99L206.6 212.99L206.6 96.49Z" id="aHmRTdlwi"></path><path d="M311.75 451.13L374.64 451.13L374.64 562.47L311.75 562.47L311.75 451.13Z" id="g1wx4vvwVV"></path><path d="M242.55 54.5C200.76 54.5 166.88 88.38 166.88 130.18C164.36 130.18 144.18 130.18 141.66 130.18C99.86 130.18 65.99 164.07 65.99 205.86C65.99 213.43 65.99 273.98 65.99 281.55C65.99 323.34 99.86 357.23 141.66 357.23C156.79 357.23 277.87 357.23 293 357.23C306.93 357.23 318.22 368.52 318.22 382.45C318.22 384.98 318.22 405.16 318.22 407.68C290.36 407.68 267.78 430.27 267.78 458.14C267.78 468.23 267.78 548.95 267.78 559.05C267.78 586.91 290.36 609.5 318.22 609.5C323.27 609.5 363.63 609.5 368.67 609.5C396.53 609.5 419.12 586.91 419.12 559.05C419.12 548.95 419.12 468.23 419.12 458.14C419.12 430.27 396.53 407.68 368.67 407.68C368.67 405.16 368.67 384.98 368.67 382.45C368.67 340.66 334.79 306.77 293 306.77C277.87 306.77 156.79 306.77 141.66 306.77C127.73 306.77 116.43 295.48 116.43 281.55C116.43 273.98 116.43 213.43 116.43 205.86C116.43 191.93 127.73 180.64 141.66 180.64C144.18 180.64 164.36 180.64 166.88 180.64C166.88 222.43 200.76 256.32 242.55 256.32C262.73 256.32 424.16 256.32 444.34 256.32C486.14 256.32 520.01 222.43 520.01 180.64C520.01 175.59 520.01 135.23 520.01 130.18C520.01 88.38 486.14 54.5 444.34 54.5C403.99 54.5 262.73 54.5 242.55 54.5ZM368.67 458.14L368.67 559.05L318.22 559.05L318.22 458.14L368.67 458.14ZM469.57 180.64C469.57 194.57 458.27 205.86 444.34 205.86C424.16 205.86 262.73 205.86 242.55 205.86C228.62 205.86 217.33 194.57 217.33 180.64C217.33 175.59 217.33 135.23 217.33 130.18C217.33 116.25 228.62 104.95 242.55 104.95C262.73 104.95 424.16 104.95 444.34 104.95C458.27 104.95 469.57 116.25 469.57 130.18C469.57 140.27 469.57 170.55 469.57 180.64Z" id="a1CSmMmu2e"></path></defs><g><g><g><use xlink:href="#a1ID3CoYGg" opacity="1" fill="#ffffff" fill-opacity="1"></use></g><g><use xlink:href="#aHmRTdlwi" opacity="1" fill="#00a8ff" fill-opacity="1"></use></g><g><use xlink:href="#g1wx4vvwVV" opacity="1" fill="#e63d3d" fill-opacity="1"></use></g><g><use xlink:href="#a1CSmMmu2e" opacity="1" fill="#000000" fill-opacity="1"></use><g><use xlink:href="#a1CSmMmu2e" opacity="1" fill-opacity="0" stroke="#ffffff" stroke-width="0" stroke-opacity="1"></use></g></g></g></g></svg>